Jump_normalized_Precision Landing04_filtered_grf
version=1
nRows=20
nColumns=37
inDegrees=yes
endheader
time		1_ground_force_vx		1_ground_force_vy		1_ground_force_vz		1_ground_force_px		1_ground_force_py		1_ground_force_pz		1_ground_torque_x		1_ground_torque_y		1_ground_torque_z		2_ground_force_vx		2_ground_force_vy		2_ground_force_vz		2_ground_force_px		2_ground_force_py		2_ground_force_pz		2_ground_torque_x		2_ground_torque_y		2_ground_torque_z		3_ground_force_vx		3_ground_force_vy		3_ground_force_vz		3_ground_force_px		3_ground_force_py		3_ground_force_pz		3_ground_torque_x		3_ground_torque_y		3_ground_torque_z		4_ground_force_vx		4_ground_force_vy		4_ground_force_vz		4_ground_force_px		4_ground_force_py		4_ground_force_pz		4_ground_torque_x		4_ground_torque_y		4_ground_torque_z		
0.197000		-0.000000		0.000000		0.000000		-0.030732		0.000000		-0.003067		0.000000		0.000000		-0.000000		0.000000		0.000000		0.000000		-0.134152		0.000000		0.385921		0.000000		-0.000000		0.000000		-35.208341		671.349778		118.428096		0.351587		1.254576		1.892892		1.617011		-30.833031		-5.439038		88.682531		630.593087		28.621496		-0.290197		1.263957		1.902580		4.527956		32.196842		1.461357		
0.200308		-0.000000		0.000000		0.000000		-0.030732		0.000000		-0.003067		0.000000		0.000000		-0.000000		0.000000		0.000000		0.000000		-0.134152		0.000000		0.385921		0.000000		-0.000000		0.000000		-36.474499		672.475522		116.689748		0.351593		1.254572		1.892929		1.677071		-30.919922		-5.365307		88.176344		631.820145		28.500364		-0.290170		1.263951		1.902620		4.506890		32.293740		1.456717		
0.203616		-0.000000		-0.000000		0.000000		-0.030732		0.000000		-0.003067		0.000000		0.000000		0.000000		0.000000		-0.000000		0.000000		-0.134152		0.000000		0.385921		0.000000		-0.000000		-0.000000		-37.682210		673.614523		114.887171		0.351620		1.254574		1.892958		1.735021		-31.015575		-5.289808		87.570992		632.706776		28.323160		-0.290138		1.263950		1.902653		4.481112		32.376364		1.449330		
0.206924		-0.000000		-0.000000		-0.000000		-0.030732		0.000000		-0.003067		-0.000000		0.000000		0.000000		0.000000		-0.000000		0.000000		-0.134152		0.000000		0.385921		0.000000		-0.000000		-0.000000		-38.775408		674.714415		113.034364		0.351664		1.254578		1.892978		1.788183		-31.115422		-5.212742		86.853613		633.138656		28.053727		-0.290097		1.263954		1.902680		4.450279		32.441296		1.437441		
0.210232		-0.000000		-0.000000		-0.000000		-0.030732		0.000000		-0.003067		-0.000000		-0.000000		0.000000		-0.000000		-0.000000		-0.000000		-0.134152		0.000000		0.385921		-0.000000		0.000000		-0.000000		-39.697643		675.680431		111.100080		0.351719		1.254583		1.892988		1.833910		-31.214368		-5.132483		85.989280		633.016703		27.684588		-0.290049		1.263957		1.902703		4.412724		32.484608		1.420693		
0.213540		0.000000		-0.000000		-0.000000		-0.030732		0.000000		-0.003067		-0.000000		-0.000000		0.000000		-0.000000		-0.000000		-0.000000		-0.134152		0.000000		0.385921		-0.000000		0.000000		-0.000000		-40.393119		676.379062		109.004660		0.351776		1.254587		1.892994		1.869623		-31.306672		-5.045356		84.941965		632.276549		27.236844		-0.289999		1.263958		1.902722		4.366585		32.503240		1.400156		
0.216848		0.000000		-0.000000		-0.000000		-0.030732		0.000000		-0.003067		-0.000000		-0.000000		0.000000		-0.000000		-0.000000		-0.000000		-0.134152		0.000000		0.385921		-0.000000		0.000000		-0.000000		-40.817753		676.642973		106.705611		0.351824		1.254588		1.893002		1.893311		-31.385753		-4.949486		83.650736		630.885854		26.718894		-0.289954		1.263952		1.902739		4.308639		32.495352		1.376223		
0.220157		0.000000		0.000000		-0.000000		-0.030732		0.000000		-0.003067		-0.000000		-0.000000		-0.000000		-0.000000		0.000000		-0.000000		-0.134152		0.000000		0.385921		-0.000000		0.000000		0.000000		-40.945646		676.318143		104.218724		0.351855		1.254585		1.893018		1.903805		-31.446016		-4.845742		82.091987		628.847752		26.126348		-0.289920		1.263938		1.902755		4.237555		32.460871		1.348631		
0.223465		0.000000		0.000000		0.000000		-0.030732		0.000000		-0.003067		0.000000		-0.000000		-0.000000		0.000000		0.000000		-0.000000		-0.134152		0.000000		0.385921		-0.000000		0.000000		0.000000		-40.782657		675.278374		101.694528		0.351861		1.254580		1.893051		1.901418		-31.483640		-4.741324		80.264998		626.184231		25.419461		-0.289897		1.263917		1.902768		4.153242		32.401355		1.315308		
0.226773		0.000000		0.000000		0.000000		-0.030732		0.000000		-0.003067		0.000000		0.000000		-0.000000		0.000000		0.000000		0.000000		-0.134152		0.000000		0.385921		0.000000		-0.000000		0.000000		-40.366094		673.443866		99.334616		0.351846		1.254574		1.893102		1.887924		-31.497004		-4.645883		78.214297		622.921876		24.552588		-0.289883		1.263894		1.902781		4.058007		32.319187		1.273867		
0.230081		-0.000000		0.000000		0.000000		-0.030732		0.000000		-0.003067		0.000000		0.000000		-0.000000		0.000000		0.000000		0.000000		-0.134152		0.000000		0.385921		0.000000		-0.000000		0.000000		-39.752308		670.793165		97.312650		0.351811		1.254571		1.893171		1.865909		-31.485953		-4.567699		76.001570		619.096598		23.491027		-0.289873		1.263873		1.902800		3.954977		32.216620		1.222429		
0.233389		-0.000000		0.000000		0.000000		-0.030732		0.000000		-0.003067		0.000000		0.000000		-0.000000		0.000000		0.000000		0.000000		-0.134152		0.000000		0.385921		0.000000		-0.000000		0.000000		-39.007540		667.326987		95.735875		0.351767		1.254572		1.893258		1.838339		-31.449646		-4.511820		73.667304		614.739311		22.210736		-0.289860		1.263860		1.902828		3.845973		32.093911		1.159563		
0.236697		-0.000000		-0.000000		0.000000		-0.030732		0.000000		-0.003067		0.000000		0.000000		0.000000		0.000000		-0.000000		0.000000		-0.134152		0.000000		0.385921		0.000000		-0.000000		-0.000000		-38.187475		663.102280		94.398147		0.351732		1.254579		1.893352		1.807569		-31.387356		-4.468252		71.246150		609.887956		20.723074		-0.289843		1.263859		1.902865		3.732309		31.949676		1.085600		
0.240005		-0.000000		-0.000000		-0.000000		-0.030732		0.000000		-0.003067		-0.000000		-0.000000		0.000000		-0.000000		-0.000000		-0.000000		-0.134152		0.000000		0.385921		-0.000000		-0.000000		-0.000000		-37.335769		658.181019		93.083297		0.351720		1.254596		1.893445		1.775279		-31.295861		-4.426019		68.719787		604.596210		19.038410		-0.289821		1.263867		1.902910		3.612508		31.782825		1.000824		
0.243313		-0.000000		-0.000000		-0.000000		-0.030732		0.000000		-0.003067		-0.000000		-0.000000		0.000000		-0.000000		-0.000000		-0.000000		-0.134152		0.000000		0.385921		-0.000000		0.000000		-0.000000		-36.492548		652.637408		91.513112		0.351749		1.254627		1.893532		1.742927		-31.170744		-4.370774		66.041045		598.924268		17.172007		-0.289795		1.263885		1.902955		3.483678		31.593392		0.905825		
0.246621		0.000000		-0.000000		-0.000000		-0.030732		0.000000		-0.003067		-0.000000		-0.000000		0.000000		-0.000000		-0.000000		-0.000000		-0.134152		0.000000		0.385921		-0.000000		0.000000		-0.000000		-35.694469		646.551590		89.583922		0.351810		1.254671		1.893610		1.711931		-31.009048		-4.296504		63.175325		592.938948		15.155583		-0.289769		1.263907		1.902992		3.343751		31.383155		0.802155		
0.249929		0.000000		-0.000000		-0.000000		-0.030732		0.000000		-0.003067		-0.000000		-0.000000		0.000000		-0.000000		-0.000000		-0.000000		-0.134152		0.000000		0.385921		-0.000000		0.000000		-0.000000		-34.982439		639.997814		87.299623		0.351888		1.254725		1.893680		1.684163		-30.811489		-4.202875		60.111003		586.696988		13.023101		-0.289743		1.263928		1.903018		3.191958		31.154252		0.691540		
0.253237		0.000000		0.000000		-0.000000		-0.030732		0.000000		-0.003067		0.000000		-0.000000		-0.000000		-0.000000		0.000000		-0.000000		-0.134152		0.000000		0.385921		-0.000000		0.000000		0.000000		-34.337882		633.054051		84.741125		0.351963		1.254783		1.893740		1.658911		-30.583726		-4.093961		56.876470		580.254067		10.816011		-0.289716		1.263942		1.903028		3.029649		30.908523		0.576137		
0.256545		0.000000		0.000000		0.000000		-0.030732		0.000000		-0.003067		0.000000		0.000000		-0.000000		0.000000		0.000000		0.000000		-0.134152		0.000000		0.385921		0.000000		0.000000		0.000000		-33.698244		625.794647		82.108059		0.352017		1.254836		1.893789		1.633470		-30.334426		-3.980061		53.556169		573.674745		8.583095		-0.289684		1.263950		1.903032		2.861150		30.647639		0.458537		
0.259854		0.000000		0.000000		0.000000		-0.030732		0.000000		-0.003067		0.000000		0.000000		-0.000000		0.000000		0.000000		0.000000		-0.134152		0.000000		0.385921		0.000000		-0.000000		0.000000		-33.006140		618.306774		79.523979		0.352047		1.254875		1.893826		1.605333		-30.072850		-3.867841		50.261075		567.038699		6.372743		-0.289647		1.263952		1.903039		2.692299		30.374171		0.341363		
